<svg xmlns="http://www.w3.org/2000/svg" width="393" height="393" viewBox="0 0 393 393">
  <g id="Group_284" data-name="Group 284" transform="translate(-0.016 -1.153)">
    <circle id="Ellipse_1" data-name="Ellipse 1" cx="196.5" cy="196.5" r="196.5" transform="translate(0.016 1.153)" fill="#ff0"/>
    <g id="Group_2" data-name="Group 2" transform="translate(39.435 39.666)">
      <g id="Group_1" data-name="Group 1">
        <path id="Path_1010" data-name="Path 1010" d="M376.418,216.038a157.276,157.276,0,0,0-134.654,238.5,39.313,39.313,0,0,0,47.078,49.37,157.254,157.254,0,1,0,87.577-287.868Z" transform="translate(-219.168 -216.038)" fill="#fff"/>
      </g>
    </g>
    <g id="Group_3" data-name="Group 3" transform="translate(25.114 25.344)">
      <path id="Path_1011" data-name="Path 1011" d="M938.7,534.32a92.685,92.685,0,0,0,6.832-18.342,80.228,80.228,0,0,0,1.925-30.1,60.915,60.915,0,0,0-8.681-24.944c-5.618-8.718-13.094-14.12-21.619-15.622-6.965-1.229-14.415.429-21.54,4.791A49.354,49.354,0,0,0,881.3,463.826c-8.738-14.267-19.972-25.843-31.992-32.885-13.681-8.014-27.55-9.66-39.052-4.632a36.183,36.183,0,0,0-16.1,14.171,57.241,57.241,0,0,0-7.9,22.374c-2.627,17.494.573,37.762,9.012,57.072,7.643,17.491,19.028,32.652,32.056,42.692,10.854,8.362,22.279,12.764,32.843,12.764a36.606,36.606,0,0,0,3.835-.2,44.289,44.289,0,1,0,74.7-40.862Z" transform="translate(-657.537 -367.55)"/>
      <path id="Path_1012" data-name="Path 1012" d="M676.87,359.9h3.21l-2.781-1.6c-8.033-4.633-17.351-6.536-27.7-5.656a67.93,67.93,0,0,0-25.852,7.818c-11.068,5.911-18.483,13.711-18.894,19.872-.4,5.992,3.259,12.144,10.58,17.792a59.684,59.684,0,0,0,11.123,6.719l1.191.525.014-1.3c.074-6.244,3.918-17.34,12.189-26.946C646.714,369.266,658.609,359.9,676.87,359.9Z" transform="translate(-513.191 -310.769)"/>
      <path id="Path_1013" data-name="Path 1013" d="M1212.784,437.034l.581.9.75-.76c5.15-5.21,12.143-7.883,20.79-7.943a42.857,42.857,0,0,1,11.6,1.508l2.993.93-2.1-2.326c-10.346-11.457-20.826-17.268-31.149-17.273h-.014a27.663,27.663,0,0,0-19.463,8.145l-.718.8.934.529C1205.977,426.627,1212.717,436.931,1212.784,437.034Z" transform="translate(-985.904 -358.448)"/>
      <path id="Path_1014" data-name="Path 1014" d="M450.285,1437.431a34.953,34.953,0,0,1-18.8-23.609c-.409-1.794-2.139-1.683-2.652-.784,0,0-6.95,10.735.372,20.162,6.141,5.753,11.426,7.752,20.929,6.079C450.971,1439.284,451.217,1437.853,450.285,1437.431Z" transform="translate(-370.098 -1158.252)"/>
      <path id="Path_1015" data-name="Path 1015" d="M477.381,249.38A171.6,171.6,0,1,0,169.433,399.743a53.632,53.632,0,0,0,59.24,62.127A171.632,171.632,0,0,0,477.381,249.38ZM451,371.795a142.995,142.995,0,0,1-211.293,63.1l-5.258-3.532-6.15,1.514a24.993,24.993,0,0,1-29.925-31.389l1.8-6.069-3.276-5.417A142.909,142.909,0,1,1,451,371.795Z" transform="translate(-147.727 -144.597)"/>
      <path id="Path_1016" data-name="Path 1016" d="M914.466,1182.332a6.352,6.352,0,0,0-2.042,1.05c-36.708,24.238-78.018,12.333-98.354-4.867q.14-.347.274-.7a34.367,34.367,0,0,0,.614-22.6,34.741,34.741,0,0,0-13.231-17.889,5.725,5.725,0,1,0-6.519,9.412,22.859,22.859,0,0,1-16.8,41.384,5.723,5.723,0,1,0-1.906,11.287,34.063,34.063,0,0,0,5.7.479,34.687,34.687,0,0,0,16.945-4.431,34.149,34.149,0,0,0,4.794-3.264,64.163,64.163,0,0,0,6.8,6.391c-2.823,11.919-1.575,22.276,3.656,30.079,5.009,7.474,13.424,12.095,24.339,13.357a44.105,44.105,0,0,0,5.073.3c10.667,0,20.9-3.958,30.494-11.806,9.3-7.6,16.094-17.373,20.343-24.658a88.512,88.512,0,0,0,25.063-13.825,5.606,5.606,0,0,0,2.118-3.806,5.493,5.493,0,0,0-1.57-4.307A5.613,5.613,0,0,0,914.466,1182.332Z" transform="translate(-646.636 -937.506)"/>
    </g>
    <g id="Group_4" data-name="Group 4" transform="translate(169.365 100.596)">
      <path id="Path_1017" data-name="Path 1017" d="M1109.358,1478.413a65.661,65.661,0,0,1,3.56,9.73,1.513,1.513,0,0,1-2.9.853c-.888-2.224-2.462-7.561-3.948-9.654-1.9-2.672-9.179-4.834-8.66-1.348,1.021,6.856,5.114,16.647,12.427,17.675,2.85.4,10.214-.707,10.255-6.394C1120.182,1476.31,1109.358,1478.413,1109.358,1478.413Z" transform="translate(-1051.256 -1284.497)" fill="#fff"/>
      <path id="Path_1018" data-name="Path 1018" d="M1360.947,834.443c-3.1,0-5.716,4.514-5.716,9.858a14.917,14.917,0,0,0,1.494,6.692,45.912,45.912,0,0,1,8.421-.184,13.412,13.412,0,0,0,1.522-6.508C1366.668,838.957,1364.047,834.443,1360.947,834.443Z" transform="translate(-1257.417 -771.403)" fill="#fff"/>
      <path id="Path_1019" data-name="Path 1019" d="M991.523,881.42a3.239,3.239,0,0,0-.63.059c-3.5.672-6.28,7.33-4.652,15.805s6.667,13.63,10.178,12.961,6.282-7.334,4.652-15.808C999.539,886.457,994.98,881.42,991.523,881.42Z" transform="translate(-962.016 -808.963)" fill="#fff"/>
      <path id="Path_1020" data-name="Path 1020" d="M1275.5,980.889a30.2,30.2,0,1,0,30.2,30.2A30.233,30.233,0,0,0,1275.5,980.889Z" transform="translate(-1169.524 -888.493)" fill="#fff"/>
      <path id="Path_1021" data-name="Path 1021" d="M949.852,579.457l-.272-.812.208-.683a64.45,64.45,0,0,1,3.542-9.063c2.944-5.749,5.686-9.68,8.624-12.374a15.422,15.422,0,0,1,11.982-4.4,16.731,16.731,0,0,1,11.469,6.264c5.682,6.714,8.449,18.017,7.4,30.235a51.25,51.25,0,0,1-3.114,13.808,43.425,43.425,0,0,1,3.963,1.922,80.061,80.061,0,0,0,4.611-14.036,62.942,62.942,0,0,0,1.3-22.4,41.431,41.431,0,0,0-5.911-17.024c-3.7-5.708-8.636-9.312-14.272-10.418a19.035,19.035,0,0,0-13.748,2.254c-4.168,2.411-8.208,6.568-12.021,12.366l-.7,1.127a79.19,79.19,0,0,0-4.439,8.416l-2.015,4.537-2.078-4.51c-.659-1.432-1.357-2.866-2.076-4.263a95.826,95.826,0,0,0-18.942-25.7c-6.992-6.6-14.5-11.226-21.7-13.371-7.456-2.22-14.384-1.692-20.036,1.525-6.4,3.64-10.89,10.49-13,19.811a63.149,63.149,0,0,0-.886,20.654c3.648-12.054,10.76-20.332,19.838-22.505,5.906-1.414,12.2-.149,18.209,3.658,5.483,3.477,10.6,9,14.809,15.987a79.616,79.616,0,0,1,9.4,24.578,78.262,78.262,0,0,1,.306,32.124c-1.752,8.127-4.879,14.824-9.131,19.625a28.382,28.382,0,0,0,8.226.686,43.635,43.635,0,0,1,23.808-33.879A68.9,68.9,0,0,0,949.852,579.457Z" transform="translate(-867.299 -519.982)" fill="#fff"/>
    </g>
  </g>
</svg>
