<svg class="Icon Icon--account " xmlns="http://www.w3.org/2000/svg" width="22.693" height="22.693" viewBox="0 0 22.693 22.693">
  <g id="Group_5" data-name="Group 5" transform="translate(-2.145 -2.161)">
    <g id="Group_2" data-name="Group 2" transform="translate(3.092 3.108)">
      <g id="Group_1" data-name="Group 1">
        <path id="Path_1010" data-name="Path 1010" d="M229.568,216.038a10.4,10.4,0,0,0-8.905,15.773,2.6,2.6,0,0,0,3.113,3.265,10.4,10.4,0,1,0,5.792-19.038Z" transform="translate(-219.168 -216.038)" fill="#fff"></path>
      </g>
    </g>
    <g id="Group_3" data-name="Group 3" transform="translate(2.145 2.161)">
      <path id="Path_1011" data-name="Path 1011" d="M795.5,430.783a6.128,6.128,0,0,0,.452-1.213,5.3,5.3,0,0,0,.127-1.991,4.029,4.029,0,0,0-.574-1.65,2.165,2.165,0,0,0-1.43-1.033,2.043,2.043,0,0,0-1.425.317,3.263,3.263,0,0,0-.947.907,6.357,6.357,0,0,0-2.116-2.175,2.831,2.831,0,0,0-2.583-.306,2.393,2.393,0,0,0-1.065.937,3.783,3.783,0,0,0-.522,1.48,7.029,7.029,0,0,0,.6,3.774,7.255,7.255,0,0,0,2.12,2.823,3.638,3.638,0,0,0,2.172.844,2.422,2.422,0,0,0,.254-.013,2.929,2.929,0,1,0,4.94-2.7Z" transform="translate(-776.909 -419.754)"></path>
      <path id="Path_1012" data-name="Path 1012" d="M609.589,352.927h.212l-.184-.106a3.074,3.074,0,0,0-1.832-.374,4.493,4.493,0,0,0-1.71.517c-.732.391-1.222.907-1.25,1.314a1.45,1.45,0,0,0,.7,1.177,3.949,3.949,0,0,0,.736.444l.079.035v-.086a3.352,3.352,0,0,1,3.248-2.921Z" transform="translate(-598.765 -349.678)"></path>
      <path id="Path_1013" data-name="Path 1013" d="M1197.166,413.718l.038.059.05-.05a1.874,1.874,0,0,1,1.375-.525,2.833,2.833,0,0,1,.767.1l.2.061-.139-.154a2.884,2.884,0,0,0-2.06-1.142h0a1.829,1.829,0,0,0-1.287.539l-.048.053.062.035A3.609,3.609,0,0,1,1197.166,413.718Z" transform="translate(-1182.161 -408.521)"></path>
      <path id="Path_1014" data-name="Path 1014" d="M427.469,1414.059a2.312,2.312,0,0,1-1.243-1.561c-.027-.119-.141-.111-.175-.052a1.208,1.208,0,0,0,.025,1.333,1.4,1.4,0,0,0,1.384.4C427.515,1414.182,427.531,1414.087,427.469,1414.059Z" transform="translate(-422.166 -1395.596)"></path>
      <path id="Path_1015" data-name="Path 1015" d="M169.528,151.527a11.349,11.349,0,1,0-20.366,9.944,3.547,3.547,0,0,0,3.918,4.109,11.351,11.351,0,0,0,16.448-14.053Zm-1.745,8.1A9.457,9.457,0,0,1,153.81,163.8l-.348-.234-.407.1a1.653,1.653,0,0,1-1.979-2.076l.119-.4-.217-.358a9.451,9.451,0,1,1,16.8-1.2Z" transform="translate(-147.727 -144.597)"></path>
      <path id="Path_1016" data-name="Path 1016" d="M781.168,1139.355a.422.422,0,0,0-.135.069,5.54,5.54,0,0,1-6.5-.322l.018-.046a2.273,2.273,0,0,0,.041-1.495,2.3,2.3,0,0,0-.875-1.183.379.379,0,1,0-.431.622,1.512,1.512,0,0,1-1.111,2.737.379.379,0,1,0-.126.747,2.26,2.26,0,0,0,.377.032,2.294,2.294,0,0,0,1.121-.293,2.249,2.249,0,0,0,.317-.216,4.243,4.243,0,0,0,.45.423,2.476,2.476,0,0,0,.242,1.989,2.147,2.147,0,0,0,1.61.883,2.933,2.933,0,0,0,.335.02,3.149,3.149,0,0,0,2.017-.781,6.115,6.115,0,0,0,1.345-1.631,5.853,5.853,0,0,0,1.658-.914.371.371,0,0,0,.14-.252.363.363,0,0,0-.1-.285A.371.371,0,0,0,781.168,1139.355Z" transform="translate(-763.455 -1123.164)"></path>
    </g>
    <g id="Group_4" data-name="Group 4" transform="translate(11.685 7.138)">
      <path id="Path_1017" data-name="Path 1017" d="M1098.173,1476.331a4.36,4.36,0,0,1,.235.643.1.1,0,0,1-.192.056,3.983,3.983,0,0,0-.261-.638c-.126-.177-.607-.32-.573-.089.068.453.338,1.1.822,1.169.188.027.676-.047.678-.423C1098.889,1476.192,1098.173,1476.331,1098.173,1476.331Z" transform="translate(-1094.33 -1463.507)" fill="#fff"></path>
      <path id="Path_1018" data-name="Path 1018" d="M1355.609,834.443c-.2,0-.378.3-.378.652a.985.985,0,0,0,.1.443,3.041,3.041,0,0,1,.557-.012.886.886,0,0,0,.1-.43C1355.987,834.741,1355.814,834.443,1355.609,834.443Z" transform="translate(-1348.762 -830.274)" fill="#fff"></path>
      <path id="Path_1019" data-name="Path 1019" d="M986.144,881.42a.214.214,0,0,0-.042,0c-.232.044-.415.485-.308,1.045s.441.9.673.857.415-.485.308-1.045C986.674,881.753,986.373,881.42,986.144,881.42Z" transform="translate(-984.193 -876.628)" fill="#fff"></path>
      <path id="Path_1020" data-name="Path 1020" d="M1247.3,980.889a2,2,0,1,0,2,2A2,2,0,0,0,1247.3,980.889Z" transform="translate(-1240.289 -974.779)" fill="#fff"></path>
      <path id="Path_1021" data-name="Path 1021" d="M872.758,523.915l-.018-.054.014-.045a4.264,4.264,0,0,1,.234-.6,2.857,2.857,0,0,1,.57-.818,1.02,1.02,0,0,1,.792-.291,1.106,1.106,0,0,1,.758.414,2.8,2.8,0,0,1,.49,2,3.389,3.389,0,0,1-.206.913,2.862,2.862,0,0,1,.262.127,5.3,5.3,0,0,0,.3-.928,4.164,4.164,0,0,0,.086-1.481,2.74,2.74,0,0,0-.391-1.126,1.474,1.474,0,0,0-.944-.689,1.259,1.259,0,0,0-.909.149,2.518,2.518,0,0,0-.8.818l-.046.075a5.24,5.24,0,0,0-.294.557l-.133.3-.137-.3c-.044-.095-.09-.189-.137-.282a6.338,6.338,0,0,0-1.253-1.7,3.7,3.7,0,0,0-1.435-.884,1.666,1.666,0,0,0-1.325.1,1.921,1.921,0,0,0-.86,1.31,4.175,4.175,0,0,0-.059,1.366,1.987,1.987,0,0,1,1.312-1.488,1.552,1.552,0,0,1,1.2.242,3.184,3.184,0,0,1,.979,1.057,5.265,5.265,0,0,1,.622,1.625,5.177,5.177,0,0,1,.02,2.125,2.848,2.848,0,0,1-.6,1.3,1.878,1.878,0,0,0,.544.045,2.886,2.886,0,0,1,1.575-2.241A4.558,4.558,0,0,0,872.758,523.915Z" transform="translate(-867.299 -519.981)" fill="#fff"></path>
    </g>
  </g>
</svg>